{"accessors" : [{"bufferView" : 0, "byteOffset" : 0, "componentType" : 5123, "count" : 7068, "type" : "SCALAR", "max" : [7067], "min" : [0]}, {"bufferView" : 1, "byteOffset" : 0, "componentType" : 5126, "count" : 7068, "type" : "VEC3", "max" : [169642.6875, 169646.6875, 169650.6875], "min" : [34.6822395324707, 38.6822395324707, 42.6822395324707]}, {"bufferView" : 1, "byteOffset" : 12, "componentType" : 5126, "count" : 7068, "type" : "VEC3", "max" : [169654.6875, 169658.6875, 169662.6875], "min" : [46.6822395324707, 50.6822395324707, 54.6822395324707]}], "asset" : {"generator" : "Aspose.3D 20.8", "version" : "2.0"}, "buffers" : [{"uri" : "buffer.bin", "byteLength" : 183776}], "bufferViews" : [{"buffer" : 0, "byteOffset" : 0, "byteLength" : 14136, "target" : 34963}, {"buffer" : 0, "byteOffset" : 14140, "byteLength" : 169632, "byteStride" : 24, "target" : 34962}], "meshes" : [{"primitives" : [{"attributes" : {"POSITION" : 1, "NORMAL" : 2}, "indices" : 0, "mode" : 4}]}], "nodes" : [{"mesh" : 0, "name" : ""}], "scene" : 0, "scenes" : [{"nodes" : [0]}]}